<svg width="17" height="17" viewBox="0 0 17 17" fill="none" xmlns="http://www.w3.org/2000/svg">
<path d="M4 1H13V-1H4V1ZM16 4V12.9375H18V4H16ZM13 15.9375H4V17.9375H13V15.9375ZM1 12.9375V4H-1V12.9375H1ZM4 15.9375C2.34315 15.9375 1 14.5944 1 12.9375H-1C-1 15.6989 1.23858 17.9375 4 17.9375V15.9375ZM16 12.9375C16 14.5944 14.6569 15.9375 13 15.9375V17.9375C15.7614 17.9375 18 15.6989 18 12.9375H16ZM13 1C14.6569 1 16 2.34315 16 4H18C18 1.23858 15.7614 -1 13 -1V1ZM4 -1C1.23858 -1 -1 1.23858 -1 4H1C1 2.34315 2.34315 1 4 1V-1Z" fill="#63729F"/>
<path d="M3.38794 13.5492L6.34634 7.71174L7.94548 10.8671L10.0853 5.28302L12.2231 8.10621L14.3973 3.38675" stroke="#63729F" stroke-width="2" stroke-linejoin="round"/>
</svg>
